<svg width="33" height="26" viewBox="0 0 33 26" fill="none" xmlns="http://www.w3.org/2000/svg">
<path fill-rule="evenodd" clip-rule="evenodd" d="M14.4706 8.32031H9.76471V12.085H6V24.3203H18.2353V12.085H14.4706V8.32031ZM13.5294 13.0262V15.3791H14.4706V13.0262H17.2941V23.3791H6.94118V13.0262H9.76471V15.3791H10.7059V13.0262H13.5294ZM13.5294 12.085V9.26149H10.7059V12.085H13.5294Z" fill="black"/>
<path d="M28.448 7.704C29.2693 7.704 29.9307 7.88533 30.432 8.248C30.944 8.6 31.3387 9.05333 31.616 9.608C31.904 10.1627 32.096 10.7813 32.192 11.464C32.2987 12.1467 32.352 12.8133 32.352 13.464C32.352 14.1253 32.2987 14.7973 32.192 15.48C32.096 16.1627 31.904 16.7813 31.616 17.336C31.3387 17.8907 30.944 18.344 30.432 18.696C29.9307 19.048 29.2693 19.224 28.448 19.224C27.6373 19.224 26.976 19.048 26.464 18.696C25.952 18.344 25.552 17.8907 25.264 17.336C24.9867 16.7813 24.7947 16.1627 24.688 15.48C24.592 14.7973 24.544 14.1307 24.544 13.48C24.544 12.8187 24.592 12.1467 24.688 11.464C24.7947 10.7813 24.9867 10.1627 25.264 9.608C25.552 9.05333 25.952 8.6 26.464 8.248C26.976 7.88533 27.6373 7.704 28.448 7.704ZM28.448 8.552C27.808 8.552 27.296 8.71733 26.912 9.048C26.528 9.37867 26.2347 9.78933 26.032 10.28C25.84 10.7707 25.712 11.304 25.648 11.88C25.584 12.456 25.552 12.984 25.552 13.464C25.552 13.9547 25.584 14.488 25.648 15.064C25.712 15.6293 25.84 16.1627 26.032 16.664C26.2347 17.1547 26.528 17.5653 26.912 17.896C27.296 18.2267 27.808 18.392 28.448 18.392C29.088 18.392 29.6 18.2267 29.984 17.896C30.368 17.5653 30.656 17.1547 30.848 16.664C31.0507 16.1627 31.184 15.6293 31.248 15.064C31.312 14.488 31.344 13.9547 31.344 13.464C31.344 12.984 31.312 12.456 31.248 11.88C31.184 11.304 31.0507 10.7707 30.848 10.28C30.656 9.78933 30.368 9.37867 29.984 9.048C29.6 8.71733 29.088 8.552 28.448 8.552Z" fill="black"/>
</svg>
